{
    "accessors": [
        {
            "bufferView": 0,
            "componentType": 5126,
            "count": 2592,
            "max": [
                14.699999809265137,
                10.300000190734863,
                6.699999809265137
            ],
            "min": [
                -14.699999809265137,
                2.960256338119507,
                -7.900000095367432
            ],
            "type": "VEC3"
        },
        {
            "bufferView": 1,
            "componentType": 5126,
            "count": 2592,
            "type": "VEC3"
        },
        {
            "bufferView": 2,
            "componentType": 5125,
            "count": 7596,
            "type": "SCALAR"
        },
        {
            "bufferView": 3,
            "componentType": 5126,
            "count": 5304,
            "max": [
                15.899999618530273,
                11.399999618530273,
                7.900000095367432
            ],
            "min": [
                -15.899999618530273,
                0,
                -7.900000095367432
            ],
            "type": "VEC3"
        },
        {
            "bufferView": 4,
            "componentType": 5126,
            "count": 5304,
            "type": "VEC3"
        },
        {
            "bufferView": 5,
            "componentType": 5125,
            "count": 18519,
            "type": "SCALAR"
        }
    ],
    "asset": {
        "generator": "Luxion KeyShot",
        "version": "2.0"
    },
    "bufferViews": [
        {
            "buffer": 0,
            "byteLength": 31104,
            "byteOffset": 0,
            "byteStride": 12
        },
        {
            "buffer": 0,
            "byteLength": 31104,
            "byteOffset": 31104,
            "byteStride": 12
        },
        {
            "buffer": 0,
            "byteLength": 30384,
            "byteOffset": 62208
        },
        {
            "buffer": 0,
            "byteLength": 63648,
            "byteOffset": 92592,
            "byteStride": 12
        },
        {
            "buffer": 0,
            "byteLength": 63648,
            "byteOffset": 156240,
            "byteStride": 12
        },
        {
            "buffer": 0,
            "byteLength": 74076,
            "byteOffset": 219888
        }
    ],
    "buffers": [
        {
            "byteLength": 293964,
            "uri": "legobrick_checker resources/legobrick_checker.bin"
        }
    ],
    "cameras": [
        {
            "name": "active",
            "perspective": {
                "aspectRatio": 1,
                "yfov": 2.007913340208671,
                "zfar": 1083.7105712890625,
                "znear": 428.6943664550781
            },
            "type": "perspective"
        }
    ],
    "materials": [
        {
            "doubleSided": true,
            "pbrMetallicRoughness": {
                "baseColorFactor": [
                    0.48627498745918274,
                    0.07058820128440857,
                    0.07058820128440857,
                    1
                ],
                "metallicFactor": 0,
                "roughnessFactor": 1
            }
        },
        {
            "doubleSided": true,
            "pbrMetallicRoughness": {
                "baseColorFactor": [
                    0.08717949688434601,
                    0.07136370241641998,
                    0.07136370241641998,
                    1
                ],
                "metallicFactor": 0,
                "roughnessFactor": 1
            }
        }
    ],
    "meshes": [
        {
            "name": "LEDO-mesh",
            "primitives": [
                {
                    "attributes": {
                        "NORMAL": 1,
                        "POSITION": 0
                    },
                    "indices": 2,
                    "material": 0,
                    "mode": 4
                }
            ]
        },
        {
            "name": "LEDO-mesh",
            "primitives": [
                {
                    "attributes": {
                        "NORMAL": 4,
                        "POSITION": 3
                    },
                    "indices": 5,
                    "material": 1,
                    "mode": 4
                }
            ]
        }
    ],
    "nodes": [
        {
            "camera": 0,
            "matrix": [
                0.7442560447873223,
                -2.1591878329729752e-07,
                0.6678944029952429,
                0,
                0.42325106638863663,
                0.7735712203034453,
                -0.4716419185146399,
                0,
                -0.5166637897491455,
                0.6337093710899353,
                0.5757351517677307,
                0,
                -341.36376953125,
                556.4297485351562,
                520.135498046875,
                1
            ],
            "name": "active"
        },
        {
            "mesh": 0,
            "name": "LEDO"
        },
        {
            "mesh": 1,
            "name": "LEDO"
        },
        {
            "children": [
                1,
                2
            ],
            "name": "LEDO"
        },
        {
            "children": [
                3
            ],
            "matrix": [
                20,
                0,
                0,
                0,
                0,
                20,
                0,
                0,
                0,
                0,
                20,
                0,
                0,
                0,
                0,
                1
            ],
            "name": "LEDO"
        },
        {
            "children": [
                4
            ],
            "matrix": [
                0.0010000000474974513,
                0,
                0,
                0,
                0,
                0.0010000000474974513,
                0,
                0,
                0,
                0,
                0.0010000000474974513,
                0,
                0,
                0,
                0,
                1
            ],
            "name": "Default"
        }
    ],
    "scenes": [
        {
            "nodes": [
                0,
                5
            ]
        }
    ]
}
